# xmcd
#
# Track frame offsets:
#	150
#	13470
#	27947
#	42470
#	54695
#	75995
#	87440
#	101925
#	118070
#	133762
#	145985
#	160050
#	184487
#	197607
#	214435
#	231930
#
# Disc length: 3339
#
# Revision: 1
# Processed by: cddbd v1.5.1PL0 Copyright (c) Steve Scherf et al.
# Submitted via: ExactAudioCopy v0.90b4
# Normalized: r0:TDELIM( - )
#
DISCID=f10d0910
DTITLE=On The road - Great Country Hits
DYEAR=1999
DGENRE=
TTITLE0=Glen Campell - Southern Night
TTITLE1=Deana Carter - Turn those Wheels around
TTITLE2=John Denver - Take me home Country Road
TTITLE3=Tanya Tucker - Strong enough to bend
TTITLE4=Kenny Rogers - Always and forever
TTITLE5=Christal Gayle - Don't make my brown eyes blue
TTITLE6=Dr.Hook ft. Ray Sawyer - Always crying over you
TTITLE7=Billi Joe Spears - Blanket on the ground
TTITLE8=Charlie Daniels - All night long
TTITLE9=Glen Campell and Rita Coolidge - Something 'bout You Baby I like
TTITLE10=Tamara Rosanes - More than I can say
TTITLE11=Smokie - If you think you know how to love me
TTITLE12=Suzy Boggus - I want to be a Cowboy's sweetheart
TTITLE13=Backseat - We got tonight
TTITLE14=Marie Osmond and Dan Seal - Meet me in Montana
TTITLE15=Juicy Newton - Angel of the morning
EXTD=
EXTT0=
EXTT1=
EXTT2=
EXTT3=
EXTT4=
EXTT5=
EXTT6=
EXTT7=
EXTT8=
EXTT9=
EXTT10=
EXTT11=
EXTT12=
EXTT13=
EXTT14=
EXTT15=
PLAYORDER=
